<svg xmlns="http://www.w3.org/2000/svg" viewBox="0 0 230.6 230.5"><defs><style>.cls-1{fill:#003676;}.cls-2{fill:#f8f9fa;}</style></defs><title>Risorsa 1</title><g id="Livello_2" data-name="Livello 2"><g id="svg33"><path class="cls-1" d="M115.3,230.5h0A115.27,115.27,0,0,1,0,115.2H0A115.25,115.25,0,0,1,115.3,0h0A115.27,115.27,0,0,1,230.6,115.3h0A115.38,115.38,0,0,1,115.3,230.5Z"/><g id="surface715"><path id="path2" class="cls-2" d="M114,54.3a20.5,20.5,0,0,0-3,2.4c-7.2,6.7-8.6,21.8-4.2,43.6.3,1.3-.1,1-1.7-1.6-3.5-5.4-6.8-7.4-11.7-6.9a10.3,10.3,0,0,0-8.6,13.7c.9,2.4,4.4,6,7.9,8l1.9,1.1-.4-1.2c-.9-3-.9-4,.2-5.1,2.9-2.9,6.6-1.5,9.3,3.5l1.8,3.2h9.4l-.3-1.5c-.2-.8-.7-4.9-1.2-9-1.1-9.9-.8-20.6.8-25.6a13.49,13.49,0,0,1,1.6-3.8c.9-.6,2.2,5.7,2.8,13.4.4,4.5-.5,15.9-1.6,21.8-.4,2.1-.7,4.1-.7,4.3s2.2.4,4.8.4h4.8l1.4-3c1.6-3.4,3.3-4.8,6-4.9a3.52,3.52,0,0,1,3.1,1.4c1.3,1.5,1.4,2.9.4,5.2-.6,1.5,4.4-1.8,6.9-4.5,3.8-4.1,4.2-9,1.3-13a9.76,9.76,0,0,0-9.1-4.4c-3.8.3-6.5,2-9.4,6.1a13.09,13.09,0,0,1-2.4,2.9,8.51,8.51,0,0,1,.6-2.5,68.84,68.84,0,0,0,2.8-15.8c.7-12.3-2.8-22.5-9.4-27.2-2.5-1.8-2.6-1.8-4.1-1"/><path id="path4" class="cls-2" d="M212.6,79c-7.5,3-11.2,10.3-13.4,26.5-.6,4.6-.6,4.6-1.4,3.1-2.4-4.6-5.7-6.9-9.7-6.9-2.8,0-4.6.8-6.9,3.2-4.7,4.9-4.4,12,.6,17.6a8.13,8.13,0,0,0,2.4,2.1c.2,0,.7-.9,1-2,.7-2.7,2.1-3.9,4.3-3.7,1.4.1,1.9.5,2.7,2.1,1.3,2.6.7,6.8-1,7.1-2.4.4-3.2,3-1.5,4.9,1.1,1.2.3,2.2-2.7,3.3-4.6,1.8-10.4.3-12.1-3-.7-1.5-.8-1.5-3.9-.3-3.5,1.4-6.8.8-9.1-1.5-1.9-1.9-2.1-2.6-1-4.7a3.28,3.28,0,0,0,.3-2.7c-.8-2.1,2.4-3.9,4.6-2.5,1.2.8,1.3,1.1,1,3.2-.4,2.7.2,2.9,3.5,1.3a7.08,7.08,0,0,0,4.4-6.3c.2-2.3.1-2.6-1.4-4.1s-1.9-1.6-4.4-1.4a23.07,23.07,0,0,0-3.9.6c-1.1.3-1.1.2.6-2.9a32.77,32.77,0,0,0,2.7-7c1.7-6.7.8-19-1.4-19.4-1.1-.2-4.8,3.1-6.4,5.8-2.3,4-3.5,9-3.9,15.8l-.3,6.4-2.2-2.4c-1.9-2.1-2.5-2.4-4.3-2.4a7.13,7.13,0,0,0-3.4.9c-2.7,1.8-3.2,8.1-.8,11.1l1.1,1.4.6-1.7c.4-1.4.9-1.8,2-1.9a3.7,3.7,0,0,1,4.1,2.4,1.93,1.93,0,0,1-.6,2.5,3.26,3.26,0,0,0-.3,4.4c.7.8.7,1-.2,1.8-1.3,1.2-5.6,1.6-8,.8a10.88,10.88,0,0,1-3.7-2.7l-1.8-2.1-1.1,1.1c-3.4,3.2-10.5,1.5-12-2.8l-.7-1.8H104.9l-1.1,2.1a7.46,7.46,0,0,1-11.1,2.8,8.36,8.36,0,0,0-2.1-1.2c-.1.1-.5.9-1,1.6-2.4,3.9-10.6,4.7-12.8,1.4-.5-.8-.5-1,.2-1,1.4,0,1.6-2.5.3-4.2s-1.1-3.1.8-4.6c2.3-1.8,4.3-.9,4.3,2,0,1.6.9,1.3,2.1-.6.9-1.4,1-2.3.9-5.2s-.4-3.7-1.6-4.9-1.9-1.4-3.9-1.4c-2.3,0-2.6.2-4.6,2.4l-2.1,2.5-.1-5.6c-.2-9.4-2.1-15.5-6.4-19.8-2-2-3.9-3.2-4.4-2.7a19.67,19.67,0,0,0-1,3.3c-1.7,6.6-.5,16.6,2.8,23.1l1.5,3.1-2-.5a7.57,7.57,0,0,0-7.1,1.4c-1.8,1.5-2,5.3-.4,7.5,1.8,2.4,7.5,4.7,7,2.8-.6-2.3-.6-2.9.1-3.9,1.7-2.3,5.8-.4,5.3,2.3a4,4,0,0,0,.5,2.8c.7,1.2.8,1.5.1,2.8-.9,1.8-4.5,3.7-7.1,3.7a11.83,11.83,0,0,1-3.9-1c-2.6-1.3-2.6-1.3-3.2.4-.8,2-4.4,3.8-7.9,3.8-3.1,0-5.1-.6-6.8-2.2-1.2-1.1-1.2-1.1-.2-2.1,1.8-1.7,1.3-3.8-1.4-4.9-1.7-.7-1.8-.8-1.8-3.5,0-3.5,1.4-5.6,3.7-5.6s3.6,1.6,4.2,5.5c.1.9.5.7,2.3-1.1a14.66,14.66,0,0,0,4.7-9.5c.2-2.5,0-3.3-1.3-5.8a14.42,14.42,0,0,0-3.8-4.6,6.76,6.76,0,0,0-5.1-1.7,10,10,0,0,0-4.3.8c-1.7.9-4.3,3.8-5.6,6.2l-.9,1.7-.7-5.5c-1.8-14.5-5.6-22.3-12.5-25.5-4.9-2.3-5.1-3.3,4.5,24.5,5.4,15.5,8.6,25.5,8.3,25.8-.8.9-.5,2.3,1,4a20.79,20.79,0,0,1,2.9,6.3l1.4,4.6-1.1,1.4c-1.8,2.3-1.1,4.8,1.3,4.8a40,40,0,0,0,6.3-1.8c5.9-2,21.4-5.9,30.2-7.6a234.14,234.14,0,0,1,62.6-3.1c16.9,1.5,38.8,6.1,53.6,11.2,5,1.7,6.3,1.6,6.5-.8a4.62,4.62,0,0,0-.9-3.2l-1-1.4,1.8-4.7a24.88,24.88,0,0,1,2.9-5.8c.9-.9,1-1.5.8-3.2s.9-5.4,6.4-21.2c8.2-23.6,10.6-30.9,10.4-31.1C215.7,77.8,214.2,78.3,212.6,79ZM68.4,100.5a26.81,26.81,0,0,1,1.4,8.4l.3,5.5-1.3-2.1c-2-3.1-2.9-6.7-2.9-11.6,0-3.8.1-4.3.8-3.8A33.13,33.13,0,0,1,68.4,100.5Zm95.8,1.6c-.2,4.3-.5,5.5-2,8.7l-1.8,3.6-.1-3.5a26.7,26.7,0,0,1,2-11.8c1.6-3.8,2.2-2.9,1.9,3"/><path id="path6" class="cls-2" d="M106.3,117.2a3.09,3.09,0,0,0-.9,1.5c0,.9,1.8,2.2,3,2.2s1.9-1.7,1.6-3.5c-.3-1.3-2.6-1.4-3.7-.2"/><path id="path8" class="cls-2" d="M113.6,117c-1.1,1.1-1.1,2,.1,3.1,1.4,1.3,3.1,1.1,3.5-.4a5.59,5.59,0,0,0,.1-2.2c-.2-1.2-2.7-1.6-3.7-.5"/><path id="path10" class="cls-2" d="M120.8,117.1c-.9.9-1,1.5-.3,2.8.6,1.1,3.1,1.4,4.1.4,1.4-1.4.1-4.1-2-4.1a3.43,3.43,0,0,0-1.8.9"/><path id="path12" class="cls-2" d="M111.7,141a5.94,5.94,0,0,0-.3,8.8,5.67,5.67,0,0,0,8.6-.9c2.6-4.3.3-9.2-4.3-9.2a5.39,5.39,0,0,0-4,1.3"/><path id="path14" class="cls-2" d="M98.1,141.1c0,.5-1.1,1.9-2.4,3.1l-2.4,2.2,1.9.9a9.42,9.42,0,0,1,3,2.6c1.3,2.1,1.7,2.2,2.1.6.3-1.3,3.2-4.5,4.1-4.5s.3-1-1.1-1.6a8.1,8.1,0,0,1-2.9-2.4c-1.5-1.9-2.3-2.2-2.3-.9"/><path id="path16" class="cls-2" d="M131.5,141.5a10.91,10.91,0,0,1-2.9,2.6l-2.3,1.4,1.7,1.1a11,11,0,0,1,2.8,3.2l1.1,2,.9-1.5a10.74,10.74,0,0,1,3.1-2.8l2.2-1.4-1.8-1.4a10.78,10.78,0,0,1-2.5-2.9c-1-1.9-1.4-1.9-2.3-.3"/><path id="path18" class="cls-2" d="M80.5,142.4c-3.4,1-4.9,5.3-3.1,8.8,1.5,3,6,3.6,8.6,1.3,3.2-2.8,2.4-8.3-1.3-9.9-1.9-.9-1.9-.9-4.2-.2"/><path id="path20" class="cls-2" d="M147.4,142.4a5.17,5.17,0,0,0-3.8,3.5,5.82,5.82,0,0,0,1.5,6.5,5.49,5.49,0,0,0,7.7.1,5.72,5.72,0,0,0,1.6-6.4,5.26,5.26,0,0,0-7-3.7"/><path id="path22" class="cls-2" d="M165.3,145.8c-1,1.4-4.1,3.3-5.3,3.3s-1.1.7.3,1.9a12.47,12.47,0,0,1,2.2,3.4l1.1,2.4,1.5-1.5a9.63,9.63,0,0,1,3.5-2.1,15.65,15.65,0,0,0,2-.7,11.83,11.83,0,0,0-1.6-1.8,5.52,5.52,0,0,1-1.6-2.3,7.12,7.12,0,0,0-.7-2.1c-.6-1.6-.7-1.6-1.4-.5"/><path id="path24" class="cls-2" d="M64.5,147a11.22,11.22,0,0,1-2.2,3.6c-1.4,1.6-1.7,2.1-1.1,2.1,1.2,0,4,1.5,5.6,3l1.4,1.3.3-1.5a13.52,13.52,0,0,1,2.1-3.8l1.8-2.3-2.2-.6a8,8,0,0,1-3.4-1.9c-1.6-1.8-1.9-1.8-2.3.1"/><path id="path26" class="cls-2" d="M47.1,150.3a7,7,0,0,0-3.2,6,4.12,4.12,0,0,0,1.5,3.7,5.84,5.84,0,0,0,7.9.1c2.2-1.8,2.7-3.4,2.1-5.9-1.1-3.7-5.1-5.6-8.3-3.9"/><path id="path28" class="cls-2" d="M179.5,150.2c-3.2.9-4.7,5.4-3,8.7.9,1.8,2.9,2.7,5.6,2.7a5.76,5.76,0,0,0,5.6-5.4c0-4.8-3.5-7.4-8.2-6"/><path id="path30" class="cls-2" d="M102.2,153.9c-19.6,1.4-41.4,5.6-55.4,10.9-4.2,1.6-6.6,4-6.6,6.6,0,2.3.3,2.9,1.9,3.8,1.8,1,2.9.8,11.3-2,22.8-7.4,36.8-9.6,61.6-9.7,16.6,0,22.4.4,34.7,2.6,11.9,2.2,26.4,6.3,33,9.3,3.8,1.7,5.8,1.7,7.7-.2,2.7-2.7,1.8-6.1-2.3-8.2-4.9-2.5-24.1-8.1-35-10-18.9-3.5-33.4-4.4-50.9-3.1"/></g></g></g></svg>